<?xml version="1.0" encoding="utf-8"?>
<!-- Generator: Adobe Illustrator 16.0.0, SVG Export Plug-In . SVG Version: 6.00 Build 0)  -->
<!DOCTYPE svg PUBLIC "-//W3C//DTD SVG 1.1//EN" "http://www.w3.org/Graphics/SVG/1.1/DTD/svg11.dtd">
<svg version="1.1" id="Layer_1" xmlns="http://www.w3.org/2000/svg" xmlns:xlink="http://www.w3.org/1999/xlink" x="0px" y="0px"
	 width="32px" height="32px" viewBox="0 0 32 32" enable-background="new 0 0 32 32" xml:space="preserve">
<path fill="#888888" d="M10.521,22.291c-0.097-0.098-0.117-0.188-0.062-0.271c0.069-0.068,0.166-0.056,0.291,0.042
	c0.098,0.097,0.119,0.187,0.063,0.271C10.744,22.402,10.646,22.389,10.521,22.291z M10.229,21.749
	c-0.068,0.042-0.151,0.007-0.249-0.104c-0.083-0.11-0.083-0.193,0-0.25c0.098-0.042,0.181-0.015,0.249,0.084
	C10.313,21.604,10.313,21.693,10.229,21.749z M9.188,20.688c-0.098-0.042-0.125-0.098-0.083-0.167
	c0.014-0.056,0.068-0.068,0.167-0.041c0.098,0.056,0.132,0.11,0.104,0.166C9.362,20.701,9.299,20.715,9.188,20.688z M9.583,21.083
	c-0.068-0.098-0.076-0.174-0.021-0.229s0.125-0.035,0.209,0.063c0.042,0.028,0.065,0.066,0.073,0.114
	c0.007,0.05-0.004,0.08-0.031,0.095C9.744,21.181,9.667,21.166,9.583,21.083z M11.334,22.771c-0.153-0.056-0.216-0.132-0.188-0.229
	c0.056-0.097,0.146-0.125,0.271-0.083c0.152,0.056,0.215,0.132,0.188,0.229C11.549,22.784,11.459,22.812,11.334,22.771z
	 M12.25,22.917c-0.152,0-0.229-0.057-0.229-0.168c0-0.11,0.068-0.166,0.207-0.166c0.168,0,0.251,0.056,0.251,0.166
	C12.479,22.86,12.403,22.917,12.25,22.917z M13.083,22.812c-0.139,0.027-0.222-0.014-0.249-0.124
	c-0.027-0.098,0.035-0.16,0.187-0.188c0.152-0.027,0.243,0.007,0.271,0.104C13.292,22.715,13.223,22.784,13.083,22.812z
	 M24.625,22.26c-1.361,1.854-3.111,3.143-5.25,3.865c-0.25,0.041-0.434,0.007-0.553-0.104c-0.117-0.11-0.176-0.25-0.176-0.417
	c0-0.027,0.003-0.382,0.01-1.063c0.008-0.681,0.011-1.298,0.011-1.854c0-0.89-0.243-1.549-0.729-1.979
	c0.528-0.056,1.004-0.139,1.428-0.25s0.857-0.292,1.302-0.542s0.815-0.56,1.114-0.927c0.299-0.368,0.545-0.854,0.74-1.458
	c0.193-0.604,0.291-1.303,0.291-2.094c0-1.098-0.368-2.048-1.104-2.854c0.332-0.86,0.299-1.805-0.105-2.833
	c-0.264-0.083-0.658-0.021-1.187,0.187c-0.528,0.208-0.913,0.39-1.156,0.542c-0.243,0.153-0.44,0.278-0.594,0.375
	C17.861,10.618,16.973,10.5,16,10.5s-1.861,0.118-2.666,0.354l-0.542-0.333c-0.348-0.222-0.768-0.427-1.26-0.615
	c-0.494-0.188-0.872-0.239-1.136-0.156c-0.403,1.028-0.438,1.973-0.104,2.833c-0.736,0.806-1.104,1.757-1.104,2.854
	c0,0.973,0.137,1.802,0.406,2.49c0.271,0.688,0.656,1.216,1.156,1.584c0.5,0.367,1.008,0.638,1.521,0.811
	c0.514,0.175,1.11,0.304,1.791,0.387c-0.361,0.306-0.59,0.785-0.688,1.438c-0.194,0.083-0.402,0.148-0.625,0.197
	c-0.223,0.05-0.486,0.073-0.791,0.073c-0.307,0-0.607-0.098-0.906-0.291c-0.299-0.194-0.56-0.486-0.781-0.876
	c-0.167-0.305-0.396-0.552-0.688-0.738c-0.291-0.189-0.5-0.296-0.624-0.323c-0.125-0.028-0.23-0.042-0.313-0.042
	c-0.117,0.076-0.253,0.101-0.405,0.073c-0.153-0.028-0.181,0.024-0.084,0.155c0.098,0.133,0.146,0.198,0.146,0.198l0.167,0.166
	c0.034,0.035,0.065,0.06,0.093,0.073c0.473,0.209,0.868,0.724,1.188,1.542c0.112,0.361,0.315,0.649,0.615,0.864
	c0.298,0.217,0.6,0.354,0.906,0.417c0.306,0.063,0.639,0.091,1,0.083c0.36-0.007,0.607-0.021,0.739-0.042
	c0.132-0.021,0.239-0.037,0.323-0.051c0.014,0.597,0.021,1.257,0.021,1.979c0,0.167-0.059,0.307-0.177,0.417
	c-0.118,0.111-0.303,0.146-0.553,0.104c-2.138-0.723-3.889-2.011-5.25-3.865c-1.36-1.854-2.041-3.941-2.041-6.26
	c0-2.944,1.041-5.458,3.125-7.542C10.542,6.374,13.056,5.333,16,5.333c2.945,0,5.459,1.042,7.541,3.125
	c2.084,2.083,3.126,4.598,3.126,7.542C26.667,18.318,25.986,20.405,24.625,22.26z M30.24,1.76C29.066,0.586,27.652,0,26,0H6
	C4.348,0,2.935,0.586,1.762,1.76C0.587,2.934,0,4.347,0,5.999V26c0,1.652,0.587,3.065,1.762,4.238C2.935,31.413,4.348,32,6,32h20
	c1.652,0,3.066-0.587,4.24-1.762C31.413,29.065,32,27.652,32,26V5.999C32,4.347,31.413,2.934,30.24,1.76z"/>
</svg>
