<?xml version="1.0" encoding="utf-8"?>
<!-- Generator: Adobe Illustrator 16.0.0, SVG Export Plug-In . SVG Version: 6.00 Build 0)  -->
<!DOCTYPE svg PUBLIC "-//W3C//DTD SVG 1.1//EN" "http://www.w3.org/Graphics/SVG/1.1/DTD/svg11.dtd">
<svg version="1.1" id="Layer_1" xmlns="http://www.w3.org/2000/svg" xmlns:xlink="http://www.w3.org/1999/xlink" x="0px" y="0px"
	 width="32px" height="32px" viewBox="0 0 32 32" enable-background="new 0 0 32 32" xml:space="preserve">
<path fill="#888888" d="M16.989,21.813C15.58,23.271,13.729,24,11.438,24c-2.222,0-4.111-0.781-5.667-2.344
	C4.215,20.093,3.438,18.209,3.438,16c0-2.208,0.778-4.094,2.333-5.656C7.326,8.782,9.215,8,11.438,8
	c2.069,0,3.854,0.694,5.354,2.083l-2.167,2.105c-0.847-0.82-1.909-1.23-3.187-1.23c-1.375,0-2.549,0.494-3.521,1.48
	C6.943,13.424,6.458,14.611,6.458,16c0,1.389,0.485,2.576,1.459,3.563c0.972,0.986,2.145,1.479,3.521,1.479
	c0.75,0,1.42-0.121,2.011-0.364c0.589-0.242,1.051-0.553,1.385-0.927c0.333-0.375,0.593-0.743,0.781-1.104
	c0.188-0.361,0.303-0.708,0.344-1.041h-4.521v-2.75h7.542c0.083,0.526,0.125,0.971,0.125,1.333
	C19.104,18.479,18.399,20.354,16.989,21.813z M26.291,19.438H24v-2.292h-2.291v-2.291H24v-2.292h2.291v2.292h2.271v2.291h-2.271
	V19.438z M30.239,1.761C29.066,0.586,27.653,0,26,0H6C4.347,0,2.935,0.586,1.761,1.761C0.586,2.933,0,4.347,0,6v20
	c0,1.653,0.586,3.065,1.761,4.239C2.935,31.414,4.347,32,6,32h20c1.653,0,3.066-0.586,4.239-1.761C31.414,29.065,32,27.653,32,26V6
	C32,4.347,31.414,2.933,30.239,1.761z"/>
</svg>
