<?xml version="1.0" encoding="utf-8"?>
<!-- Generator: Adobe Illustrator 16.0.0, SVG Export Plug-In . SVG Version: 6.00 Build 0)  -->
<!DOCTYPE svg PUBLIC "-//W3C//DTD SVG 1.1//EN" "http://www.w3.org/Graphics/SVG/1.1/DTD/svg11.dtd">
<svg version="1.1" id="Layer_1" xmlns="http://www.w3.org/2000/svg" xmlns:xlink="http://www.w3.org/1999/xlink" x="0px" y="0px"
	 width="32px" height="32px" viewBox="0 0 32 32" enable-background="new 0 0 32 32" xml:space="preserve">
<path fill="#888888" d="M4.938,12.333H9.75v14.459H4.938V12.333z M9.313,9.656c-0.5,0.479-1.16,0.719-1.979,0.719H7.313
	c-0.792,0-1.434-0.239-1.927-0.719c-0.493-0.48-0.74-1.072-0.74-1.781c0-0.722,0.253-1.32,0.761-1.792
	C5.914,5.61,6.569,5.375,7.375,5.375S8.826,5.61,9.313,6.083c0.486,0.472,0.736,1.07,0.75,1.792
	C10.063,8.584,9.813,9.176,9.313,9.656z M22.25,19.063c0-2.181-0.805-3.271-2.417-3.271c-0.61,0-1.125,0.171-1.542,0.511
	c-0.416,0.341-0.729,0.753-0.937,1.24c-0.098,0.25-0.146,0.639-0.146,1.166v8.084h-4.812c0.042-8.723,0.042-13.542,0-14.459h4.812
	v2.104h-0.042C18.181,12.813,19.632,12,21.521,12c1.666,0,3.007,0.549,4.021,1.646c1.013,1.097,1.521,2.715,1.521,4.854v8.292H22.25
	V19.063z M30.239,1.761C29.066,0.587,27.652,0,26,0H6C4.347,0,2.934,0.587,1.761,1.761C0.586,2.934,0,4.347,0,6v20
	c0,1.652,0.586,3.066,1.761,4.239C2.934,31.413,4.347,32,6,32h20c1.652,0,3.066-0.587,4.239-1.761C31.412,29.066,32,27.652,32,26V6
	C32,4.347,31.412,2.934,30.239,1.761z"/>
</svg>
